<svg width="40" height="44" viewBox="0 0 40 44" fill="none" xmlns="http://www.w3.org/2000/svg">
<path d="M34.7273 42H5.27273C3.45738 42 2 40.4162 2 38.4689V15.6076C2 13.6603 3.45738 12.0895 5.27273 12.0895H34.7273C36.5298 12.0895 38 13.6603 38 15.6076V38.4689C38 40.4162 36.5298 42 34.7273 42Z" stroke="#0B0B0B" stroke-width="2.5" stroke-miterlimit="10" stroke-linecap="round"/>
<path d="M2 21.5275V12.4531C2 10.9472 2.94602 9.62305 4.31392 9.24657L28.5909 2.08052C30.2273 1.66509 31.4545 2.91136 31.4545 4.57306V7.0656" stroke="#0B0B0B" stroke-width="2.5" stroke-miterlimit="10" stroke-linecap="round"/>
<path d="M28.8181 23.6824C27.0156 23.6824 25.5454 25.1753 25.5454 27.0058C25.5454 28.8362 27.0156 30.3291 28.8181 30.3291C30.6207 30.3291 32.0909 28.8362 32.0909 27.0058C32.0909 25.1753 30.6207 23.6824 28.8181 23.6824Z" stroke="#0B0B0B" stroke-width="2.5" stroke-miterlimit="10" stroke-linecap="round"/>
</svg>
