<svg width="38" height="38" viewBox="0 0 38 38" fill="none" xmlns="http://www.w3.org/2000/svg">
<path fill-rule="evenodd" clip-rule="evenodd" d="M19 2C9.61116 2 2 9.61116 2 19C2 28.3888 9.61116 36 19 36C28.3888 36 36 28.3888 36 19C36 9.61116 28.3888 2 19 2ZM0 19C0 8.50659 8.50659 0 19 0C29.4934 0 38 8.50659 38 19C38 29.4934 29.4934 38 19 38C8.50659 38 0 29.4934 0 19Z" fill="#0B0B0B"/>
<path d="M19 30.2429C19.8284 30.2429 20.5 29.5713 20.5 28.7429C20.5 27.9145 19.8284 27.2429 19 27.2429C18.1716 27.2429 17.5 27.9145 17.5 28.7429C17.5 29.5713 18.1716 30.2429 19 30.2429Z" fill="#0B0B0B"/>
<path fill-rule="evenodd" clip-rule="evenodd" d="M16.6082 9.47576C17.7503 9.00271 19.0069 8.87894 20.2193 9.12009C21.4317 9.36125 22.5453 9.95651 23.4194 10.8306C24.2935 11.7047 24.8888 12.8183 25.1299 14.0307C25.3711 15.2431 25.2473 16.4997 24.7742 17.6418C24.3012 18.7838 23.5001 19.7599 22.4723 20.4467C21.7242 20.9465 20.8805 21.2768 20 21.4195V22C20 22.5523 19.5523 23 19 23C18.4477 23 18 22.5523 18 22V20.5C18 20.2348 18.1054 19.9804 18.2929 19.7929C18.4804 19.6054 18.7348 19.5 19 19.5C19.8406 19.5 20.6623 19.2507 21.3612 18.7837C22.0601 18.3168 22.6048 17.653 22.9265 16.8764C23.2482 16.0998 23.3323 15.2453 23.1683 14.4209C23.0044 13.5964 22.5996 12.8392 22.0052 12.2448C21.4108 11.6504 20.6536 11.2457 19.8291 11.0817C19.0047 10.9177 18.1502 11.0018 17.3736 11.3235C16.597 11.6452 15.9332 12.1899 15.4663 12.8888C14.9993 13.5877 14.75 14.4094 14.75 15.25C14.75 15.8023 14.3023 16.25 13.75 16.25C13.1977 16.25 12.75 15.8023 12.75 15.25C12.75 14.0139 13.1166 12.8055 13.8033 11.7777C14.4901 10.7499 15.4662 9.9488 16.6082 9.47576Z" fill="#0B0B0B"/>
</svg>