<svg width="40" height="44" viewBox="0 0 40 44" fill="none" xmlns="http://www.w3.org/2000/svg">
<path fill-rule="evenodd" clip-rule="evenodd" d="M19.9998 2.80893C15.631 2.80893 8.72703 4.38475 5.03458 5.32482L5.02173 5.32809L5.02171 5.32802C4.15713 5.53851 3.56039 6.30047 3.56039 7.19025V17.4974C3.56039 22.9976 6.30599 28.0563 9.70913 32.1974C13.1003 36.3239 17.0341 39.4037 19.1574 40.9213C19.6642 41.2835 20.3172 41.2807 20.8222 40.9131C22.9431 39.369 26.8828 36.238 30.2806 32.0919C33.6929 27.928 36.4393 22.8865 36.4393 17.4974V7.19025C36.4393 6.31783 35.8459 5.54692 34.9679 5.32553L34.9651 5.32482C31.2726 4.38475 24.3687 2.80893 19.9998 2.80893ZM4.41651 2.87235C8.06906 1.94263 15.2678 0.279785 19.9998 0.279785C24.7345 0.279785 31.9384 1.94443 35.5891 2.87386C37.5764 3.37631 38.9684 5.14721 38.9684 7.19025V17.4974C38.9684 23.7323 35.8107 29.3339 32.2367 33.695C28.6482 38.0739 24.5192 41.35 22.3108 42.9577C20.9266 43.9655 19.0813 43.9756 17.6868 42.9789C15.472 41.3959 11.3426 38.1684 7.75516 33.8031C4.17971 29.4524 1.03125 23.8351 1.03125 17.4974V7.19025C1.03125 5.14105 2.41797 3.36223 4.41651 2.87235Z" fill="#0B0B0B"/>
</svg>
