<svg width="36" height="44" viewBox="0 0 36 44" fill="none" xmlns="http://www.w3.org/2000/svg">
<path d="M16.2222 32.9091V33.5455M9.11111 32.9091V33.5455M16.2222 25.6364V26.2727M9.11111 25.6364V26.2727M28.9333 33.5H22.0444M16.2222 18.3636V19M9.11111 18.3636V19M22.0889 25.6363V26.2726M22.0889 18.3635V18.9999M28.9333 25.6363V26.2726M28.9333 18.3635V18.9999M30.4444 42H5.55556C3.59722 42 2 40.3665 2 38.3636V5.63636C2 3.63352 3.59722 2 5.55556 2H30.4444C32.4028 2 34 3.63352 34 5.63636V38.3636C34 40.3665 32.4028 42 30.4444 42Z" stroke="#0B0B0B" stroke-width="2.5" stroke-miterlimit="10" stroke-linecap="round"/>
<path d="M9.11133 9.27295H26.8891" stroke="#0B0B0B" stroke-width="2.5" stroke-miterlimit="10" stroke-linecap="round"/>
</svg>
