<svg width="38" height="36" viewBox="0 0 38 36" fill="none" xmlns="http://www.w3.org/2000/svg">
<g clip-path="url(#clip0_2433_35551)">
<path fill-rule="evenodd" clip-rule="evenodd" d="M2.5 8.5C2.22386 8.5 2 8.72386 2 9V33C2 33.2761 2.22386 33.5 2.5 33.5H35.5C35.7761 33.5 36 33.2761 36 33V9C36 8.72386 35.7761 8.5 35.5 8.5H2.5ZM0 9C0 7.61929 1.11929 6.5 2.5 6.5H35.5C36.8807 6.5 38 7.61929 38 9V33C38 34.3807 36.8807 35.5 35.5 35.5H2.5C1.11929 35.5 0 34.3807 0 33V9Z" fill="#0B0B0B"/>
<path fill-rule="evenodd" clip-rule="evenodd" d="M11.6716 1.67157C12.4217 0.921427 13.4391 0.5 14.5 0.5H23.5C24.5609 0.5 25.5783 0.921427 26.3284 1.67157C27.0786 2.42172 27.5 3.43913 27.5 4.5V7.5C27.5 8.05228 27.0523 8.5 26.5 8.5C25.9477 8.5 25.5 8.05228 25.5 7.5V4.5C25.5 3.96957 25.2893 3.46086 24.9142 3.08579C24.5391 2.71071 24.0304 2.5 23.5 2.5H14.5C13.9696 2.5 13.4609 2.71071 13.0858 3.08579C12.7107 3.46086 12.5 3.96957 12.5 4.5V7.5C12.5 8.05228 12.0523 8.5 11.5 8.5C10.9477 8.5 10.5 8.05228 10.5 7.5V4.5C10.5 3.43913 10.9214 2.42172 11.6716 1.67157Z" fill="#0B0B0B"/>
<path fill-rule="evenodd" clip-rule="evenodd" d="M0 24C0 23.4477 0.447715 23 1 23H37C37.5523 23 38 23.4477 38 24C38 24.5523 37.5523 25 37 25H1C0.447715 25 0 24.5523 0 24Z" fill="#0B0B0B"/>
</g>
<defs>
<clipPath id="clip0_2433_35551">
<rect width="38" height="36" fill="white"/>
</clipPath>
</defs>
</svg>
