<svg width="126" height="28" viewBox="0 0 126 28" fill="none" xmlns="http://www.w3.org/2000/svg">
<path d="M21.0148 27.9641L12.7579 27.8122C10.0844 27.7593 7.40432 27.865 4.78338 27.3167C0.796149 26.4975 0.513692 22.4807 0.218098 19.1114C-0.189164 14.3745 -0.0315142 9.55169 0.73703 4.85444C1.17057 2.21843 2.87844 0.64607 5.51908 0.4743C14.4329 -0.146715 23.4058 -0.0740435 32.2999 0.216644C33.2392 0.243071 34.1851 0.388415 35.1113 0.553578C39.6832 1.35958 39.7949 5.91148 40.0904 9.74328C40.386 13.6147 40.2612 17.506 39.6963 21.351C39.2431 24.5353 38.376 27.2044 34.7172 27.462C30.1322 27.799 25.6523 28.0698 21.0542 27.9839C21.0542 27.9641 21.0279 27.9641 21.0148 27.9641ZM16.1605 19.9041C19.6156 17.909 23.0051 15.9468 26.4406 13.9649C22.9788 11.9697 19.5959 10.0075 16.1605 8.02558V19.9041Z" fill="#7A7A7A"/>
<path d="M106.319 24.3437C106.162 24.9912 106.024 25.4999 105.886 26.0416H102.654V0.969543H106.424V10.2188C106.621 9.96775 106.72 9.86204 106.805 9.74973C107.449 8.85784 108.283 8.27645 109.36 8.05183C111.075 7.71489 112.54 8.47465 113.059 10.1329C113.394 11.1635 113.61 12.2668 113.637 13.3437C113.689 16.1119 113.65 18.8735 113.551 21.6416C113.512 22.4873 113.256 23.3527 112.934 24.1455C111.876 26.7617 108.421 27.1581 106.707 24.8921C106.602 24.7533 106.503 24.6014 106.319 24.3437ZM106.503 17.4464V22.0314C106.503 22.778 106.897 23.2338 107.639 23.4056C108.369 23.5774 108.96 23.2933 109.255 22.6128C109.38 22.3287 109.505 22.0314 109.512 21.7341C109.584 18.9329 109.65 16.1317 109.669 13.3239C109.669 12.802 109.544 12.2602 109.387 11.7515C109.091 10.8332 108.277 10.5623 107.475 11.0975C106.871 11.5071 106.503 12.0885 106.503 12.8614V17.4464ZM96.2558 8.40859H100.204V26.0548H97.1229C97.0112 25.3876 96.8996 24.7005 96.7682 23.8945C96.558 24.205 96.4332 24.4032 96.3018 24.6014C95.2771 26.0879 93.8254 26.5966 92.111 26.3257C90.6461 26.0879 89.7659 24.9515 89.5689 23.0885C89.5097 22.5335 89.4835 21.972 89.4835 21.417C89.4703 17.2879 89.4835 13.1455 89.4835 9.01639V8.39537H93.4773V9.11549C93.4773 13.1059 93.4641 17.0897 93.4904 21.0801C93.4904 21.6482 93.5495 22.2362 93.648 22.8044C93.7597 23.3858 94.1801 23.5972 94.745 23.5575C95.6581 23.4849 96.2887 22.8044 96.2887 21.8927V9.18817C96.2558 8.93051 96.2558 8.69267 96.2558 8.40859ZM69.0744 8.39537H73.0419V9.14192C73.0419 13.1125 73.0287 17.0765 73.055 21.0338C73.055 21.602 73.1076 22.19 73.2258 22.7449C73.3769 23.399 73.7579 23.6104 74.4082 23.5245C75.3081 23.399 75.8533 22.7714 75.8599 21.853V9.21459V8.4218H79.8077V26.0548H76.7401C76.6284 25.4008 76.5168 24.7269 76.3722 23.8747C76.1752 24.172 76.0635 24.3437 75.9518 24.5221C74.9271 26.035 73.4886 26.59 71.7347 26.3191C70.329 26.1077 69.4685 25.0638 69.2057 23.3527C69.1335 22.8176 69.0809 22.2891 69.0809 21.7539C69.0678 17.4662 69.0678 13.1587 69.0678 8.87105L69.0744 8.39537ZM67.038 17.8164C67.0249 18.411 66.9855 19.0056 66.9527 19.6002C66.8016 21.384 66.7293 23.9143 65.2973 25.2158C64.3843 26.035 63.2282 26.3323 62.0327 26.372C61.5006 26.3852 60.962 26.3852 60.4299 26.3125C57.9141 25.9293 56.7448 24.8128 56.3244 22.0314C55.8449 18.8206 55.8055 15.5569 56.377 12.3461C56.9682 9.023 59.0045 7.84702 62.1706 8.06504C65.1265 8.27645 66.4469 10.2254 66.795 13.0002C66.9855 14.5924 67.0775 16.2044 67.038 17.8164ZM63.018 17.2086C63.018 16.0789 63.0443 14.9425 63.0048 13.8128C62.9786 13.1587 62.8932 12.4981 62.7552 11.8506C62.5976 11.1041 62.1246 10.7473 61.5334 10.7605C60.9554 10.7738 60.5481 11.1305 60.3379 11.8242C60.2657 12.0819 60.1868 12.3461 60.1868 12.6038C60.1868 14.3744 60.1737 16.1515 60.1606 17.9221C60.1474 19.5738 59.9372 21.3047 60.4562 22.8837C60.6138 23.3659 61.0211 23.6302 61.5531 23.6302C62.0721 23.6302 62.4137 23.3726 62.6041 22.9101C62.7552 22.5533 62.8866 22.1635 62.8866 21.7804C62.9326 20.2608 63.018 18.7347 63.018 17.2086ZM50.5308 13.8855C50.8789 12.1744 51.2074 10.5029 51.5686 8.8248C52.0219 6.69087 52.5277 4.55693 52.9744 2.41639C53.086 1.89447 53.2962 1.76894 53.7889 1.78216C54.8465 1.8218 55.9237 1.79537 57.0536 1.79537C56.6857 3.15633 56.3244 4.45123 55.9697 5.7263C54.8465 9.72991 53.7232 13.7467 52.6131 17.7635C52.5277 18.0741 52.4883 18.411 52.4883 18.7413C52.4751 20.9347 52.4883 23.1215 52.4883 25.3149V26.0284H48.6324C48.6193 25.8302 48.593 25.632 48.593 25.4338C48.593 24.1918 48.4945 22.9431 48.6061 21.7143C48.8886 18.7611 47.9558 16.0458 47.2004 13.2975C46.202 9.66384 45.1904 6.01699 44.1919 2.38336C44.1394 2.21159 44.1197 2.0266 44.0671 1.81519H48.0018C48.8295 5.8254 49.6637 9.83561 50.5308 13.8855ZM125.973 18.4903H119.325C119.398 19.8314 119.424 21.1065 119.562 22.3684C119.66 23.247 120.14 23.6236 120.895 23.6302C121.683 23.6434 122.143 23.247 122.327 22.375C122.386 22.0909 122.426 21.8068 122.452 21.5161C122.478 21.2584 122.491 20.981 122.511 20.611C123.634 20.6705 124.731 20.7365 125.815 20.7828C126.446 22.6656 125.309 25.0837 123.398 25.8302C121.894 26.4248 120.35 26.4248 118.813 25.969C117.677 25.632 116.829 24.9053 116.448 23.7888C116.093 22.7449 115.758 21.6548 115.686 20.5647C115.489 17.8759 115.417 15.1605 115.824 12.465C115.896 12.0158 116.021 11.5864 116.159 11.1503C116.711 9.35333 117.913 8.25003 119.772 8.06504C120.784 7.96594 121.828 8.00558 122.826 8.17735C124.442 8.46144 125.303 9.63081 125.677 11.1635C125.848 11.8837 125.973 12.6236 125.999 13.3569C126.006 15.0416 125.973 16.7131 125.973 18.4903ZM122.196 16.1714C122.196 14.8434 122.209 13.5948 122.183 12.3395C122.183 12.0422 122.071 11.7317 121.959 11.4476C121.736 10.8927 121.27 10.7407 120.711 10.7407C120.153 10.7407 119.798 11.0248 119.66 11.5335C119.24 13.0596 119.378 14.6188 119.391 16.1846C120.396 16.1714 121.309 16.1714 122.196 16.1714Z" fill="#7A7A7A"/>
<path d="M82.8549 5.03278H78.9465V1.84839H90.6126V5.01296H86.7305V26.0286H82.8615L82.8549 5.03278Z" fill="#7A7A7A"/>
</svg>
